<svg width="70" height="70" viewBox="0 0 70 70" fill="none" xmlns="http://www.w3.org/2000/svg">
  <path d="M25.2656 23.3734C23.6271 22.2255 22.0736 20.9608 20.6172 19.5891C19.8844 18.6266 17.7844 16.1656 17.5547 16.4938C17.325 16.8219 15.5969 19.775 15.1922 19.775C13.5553 18.7093 11.9881 17.5402 10.5 16.275C9.69919 16.5241 8.83726 16.4917 8.05735 16.1833C7.27744 15.8749 6.62647 15.3091 6.21252 14.5797C4.42971 11.9438 7.76565 9.20938 10.5875 9.57031C13.4094 9.93125 12.4141 13.3984 12.4141 13.3984C12.4141 13.3984 13.5953 14.2625 13.6828 14.1313C13.7703 14 15.5969 11.0797 16.7891 11.1672C17.9813 11.2547 20.4313 14.0328 20.4313 14.0328C20.4313 14.0328 22.761 13.7594 23.8547 14.8531C24.9485 15.9469 24.7625 17.5875 25.2219 17.6422C25.6813 17.6969 27.6281 18.2328 27.6281 18.2328C27.6281 18.2328 29.5422 11.9438 34.1906 11.2547C38.8391 10.5656 46.4516 19.2281 46.4516 19.2281C46.4516 19.2281 49.011 13.9453 49.7328 13.7594C50.4547 13.5734 53.9766 15.9469 54.1078 15.8156C54.2391 15.6844 57.5313 11.8891 57.5313 11.8891C57.2622 11.5995 57.054 11.2589 56.919 10.8874C56.784 10.5159 56.725 10.1211 56.7454 9.72639C56.7658 9.33166 56.8652 8.94504 57.0378 8.58944C57.2103 8.23385 57.4525 7.91652 57.75 7.65625C58.1994 7.12597 58.7895 6.73354 59.4523 6.52426C60.1151 6.31498 60.8236 6.29737 61.496 6.47347C62.1684 6.64958 62.7773 7.01221 63.2524 7.51952C63.7275 8.02684 64.0495 8.65815 64.1813 9.34063C65.0453 12.5344 60.3094 13.3984 60.3094 13.3984C60.3094 13.3984 55.7047 20.0484 55.1578 20.1906C54.611 20.3328 51.6031 18.9109 51.5156 19.0969C51.4281 19.2828 49.9188 23.3297 49.9188 23.3297C52.7719 26.8689 54.5283 31.1648 54.9719 35.6891C55.5188 42.8859 54.9719 47.2609 50.4219 49.4484C47.7652 50.8268 44.9025 51.765 41.9453 52.2266C40.8516 52.3688 39.1563 52.5 39.1563 52.5L39.5719 54.4578L43.0391 54.9609C43.1663 54.5149 43.4437 54.1264 43.8244 53.8613C44.2051 53.5963 44.6656 53.4708 45.1281 53.5063C46.8125 53.5938 46.5938 55.7812 45.9375 56.3609C45.6718 56.5634 45.3512 56.681 45.0175 56.6986C44.6839 56.7162 44.3528 56.6328 44.0672 56.4594C43.75 56.2297 43.3891 55.9125 43.3891 55.9125H40.3375C40.4069 56.8993 40.4069 57.8898 40.3375 58.8766L40.1953 59.2813L40.2938 60.375C40.2938 60.375 43.1594 60.5609 43.1594 61.2938C43.1594 62.0266 42.2516 63.1531 41.7485 63.1094C40.9754 62.9966 40.2321 62.7328 39.561 62.3328C39.4735 62.1141 39.2438 59.5109 39.2438 59.5109H38.511C38.6502 60.4924 38.6978 61.4847 38.6531 62.475C38.4672 62.6609 35.8641 63.9844 35.3719 63.5688C34.8797 63.1531 34.3656 61.3813 34.7813 61.2391C35.1969 61.0969 37.7344 60.8781 37.7344 60.7469C37.7344 60.6156 37.7891 59.6531 37.7891 59.6531C37.7891 59.6531 36.7828 59.0625 36.7828 58.3406C36.7828 57.6188 36.6953 56.5578 36.6953 56.5578C36.4407 56.573 36.1951 56.6574 35.985 56.802C35.7749 56.9466 35.6083 57.1458 35.5031 57.3781C35.2843 57.7304 35.087 58.0956 34.9125 58.4719C34.9125 58.4719 35.4594 60.2984 34.1797 60.6594C32.9 61.0203 31.4453 59.3797 32.0906 58.1547C32.736 56.9297 34.136 57.7391 34.136 57.7391C34.6906 56.8852 35.3482 56.1028 36.0938 55.4094C36.3866 55.2247 36.6897 55.0567 37.0016 54.9063L37.2313 52.7188C37.2313 52.7188 31.3578 53.4953 27.3 51.8984C23.2422 50.3016 19.961 47.7531 20.1906 41.5953C20.4203 35.4375 25.2656 23.3734 25.2656 23.3734Z" fill="#31312D" />
  <path d="M33.3266 58.275C33.6547 58.0344 34.2344 59.2813 33.8734 59.5547C33.5125 59.8281 32.4625 58.9203 33.3266 58.275Z" fill="#E69892" />
  <path d="M44.625 54.2281C45.3031 54.2281 45.7187 54.4031 45.7187 54.9937C45.7187 55.5844 44.8984 55.8141 44.625 55.5953C44.3516 55.3766 44.2641 54.2281 44.625 54.2281Z" fill="#E69892" />
  <path d="M38.2047 53.725C38.4344 53.375 39.8016 57.6844 39.4844 58.1C39.2516 58.2717 38.9797 58.3826 38.6932 58.4228C38.4067 58.4629 38.1148 58.4309 37.8438 58.3297C37.7822 56.7859 37.9033 55.2403 38.2047 53.725Z" fill="#E44B48" />
  <path d="M8.94685 11.1562C10.1172 11.1562 11.2656 11.0687 11.4515 12.4797C11.6375 13.8906 10.7187 14.6672 9.13279 14.8969C8.86823 14.9148 8.60298 14.8742 8.3559 14.7779C8.10882 14.6817 7.88598 14.5322 7.70324 14.34C7.5205 14.1479 7.38234 13.9178 7.2986 13.6662C7.21486 13.4147 7.18759 13.1477 7.21873 12.8844C7.30623 12.3922 7.80935 11.2 8.94685 11.1562Z" fill="#F3B867" />
  <path d="M12.5016 14.9406C12.6984 14.9406 13.825 16.0344 14.1859 15.7172C14.5469 15.4 17.1062 12.3375 17.2812 12.4359C17.4562 12.5344 20.114 15.7172 20.5625 15.575C21.0109 15.4328 21.8859 14.8969 22.4328 15.1703C22.9797 15.4437 23.7125 15.8484 23.8 16.3516C23.8875 16.8547 23.9422 18.9 24.6203 19.0422C25.2984 19.1844 27.0375 19.2719 26.9937 19.5016C26.95 19.7312 25.7578 22.1375 25.7578 22.1375C24.0588 21.5391 22.6129 20.3824 21.6562 18.8562C19.9281 16.2641 18.9219 15.2578 18.2 14.9406C17.4781 14.6234 17.1937 14.4812 16.9203 14.7547C16.6469 15.0281 15.5531 17.5875 14.9187 17.675C14.2844 17.7625 11.7687 15.7609 11.7687 15.4875C11.7687 15.2141 12.2281 14.9844 12.5016 14.9406Z" fill="#FFD458" />
  <path d="M47.3594 19.8188C47.3594 19.8188 49.6453 14.6234 50.2359 14.9406C50.8266 15.2578 53.5172 17.3141 53.9766 17.1281C54.4359 16.9422 58.2531 12.4359 58.4828 12.5672C58.7125 12.6984 59.0297 12.7531 58.8984 12.9391C58.7672 13.125 54.8844 18.8563 54.6875 18.8125C54.4906 18.7688 51.4062 17.1719 51.1437 17.5C50.8812 17.8281 49.1422 22.3344 48.9562 22.0609C48.7703 21.7875 47.3594 19.8188 47.3594 19.8188Z" fill="#FFD458" />
  <path d="M59.85 7.74376C62.4531 7.05469 63.3609 9.24219 62.8141 10.5656C62.6292 10.9434 62.3518 11.2682 62.0077 11.51C61.6637 11.7517 61.264 11.9025 60.846 11.9484C60.4279 11.9942 60.0051 11.9336 59.6168 11.7722C59.2285 11.6107 58.8873 11.3537 58.625 11.025C57.2578 9.32969 59.2813 7.88594 59.85 7.74376Z" fill="#F3B867" />
  <path d="M34.2891 13.0266C36.3563 12.3375 41.7156 15.8922 47.0859 22.8703C52.4563 29.8484 53.0578 38.8609 52.8828 38.8172C52.7078 38.7734 50.8703 37.4937 50.6953 37.5375C50.5203 37.5812 50.2797 38.1391 50.4219 38.2703C50.5641 38.4016 52.7406 39.5937 52.7844 39.9109C52.8281 40.2281 52.6969 41.1469 52.6969 41.4641C52.6948 41.664 52.6654 41.8627 52.6094 42.0547C51.6969 41.446 50.7346 40.9155 49.7328 40.4687C49.6016 40.6109 49.1422 41.2891 49.3719 41.3875C50.4524 41.8967 51.4754 42.5201 52.4234 43.2469C52.3023 43.697 52.1182 44.1278 51.8766 44.5266L51.6906 44.7562L48.5953 42.5687C48.5953 42.5687 47.6328 43.0281 48.0484 43.3891C48.4641 43.75 51.3297 45.5766 51.1438 45.8937C50.9578 46.2109 50.1484 47.0312 50.1484 47.0312C49.174 46.2141 48.1311 45.4822 47.0313 44.8437C46.7141 44.8437 46.3094 45.2594 46.4844 45.4344C46.6594 45.6094 49.4047 47.7203 49.2188 47.8516C49.0328 47.9828 48.0375 48.5406 48.0375 48.5406C48.0375 48.5406 45.7625 46.8453 45.5766 46.8016C45.3906 46.7578 44.9859 47.0312 44.9859 47.2172C44.9859 47.4031 47.3047 48.9453 47.1734 49.0328C46.4804 49.3643 45.7439 49.5963 44.9859 49.7219C44.8438 49.525 43.5313 48.125 43.0391 48.125C42.5469 48.125 42.3063 48.3984 42.4922 48.5844C42.6781 48.7703 44.1766 49.8641 43.9906 49.9953C43.8047 50.1266 35.9734 51.5484 31.5547 50.7719C27.1359 49.9953 24.3469 48.8906 22.9688 45.0187C21.5906 41.1469 23.7453 32.9 26.1188 26.9281C28.4922 20.9562 30.8656 14.2187 34.2891 13.0266Z" fill="#E44B48" />
  <path d="M25.8563 43.6078C26.1188 43.4219 26.95 43.8375 26.6328 44.1109C26.3156 44.3844 25.8125 44.7016 25.6703 45.2047C25.5281 45.7078 25.4406 45.9266 25.2109 45.8828C25.1454 45.871 25.0829 45.8463 25.0269 45.8101C24.971 45.7739 24.9228 45.727 24.8852 45.672C24.8476 45.6171 24.8212 45.5552 24.8076 45.49C24.7941 45.4248 24.7936 45.3576 24.8063 45.2922C24.974 44.6358 25.3408 44.0474 25.8563 43.6078Z" fill="#31312D" />
  <path d="M28.0875 45.3359C28.4594 45.3359 28.9516 46.7906 30.461 47.1188C31.9703 47.4469 33.7422 47.6109 33.961 48.1141C33.9941 48.2643 33.9953 48.4198 33.9643 48.5705C33.9332 48.7211 33.8708 48.8636 33.781 48.9885C33.6912 49.1134 33.5761 49.2179 33.4431 49.2953C33.3101 49.3727 33.1624 49.4211 33.0094 49.4375C31.4046 49.201 29.8768 48.5944 28.5469 47.6656C27.4532 46.7031 27.1797 45.3359 28.0875 45.3359Z" fill="#31312D" />
  <path d="M31.5547 20.8687C31.4891 20.7375 31.6422 20.1359 32.375 18.3531C33.1078 16.5703 34.3766 16.1656 34.65 16.4391C34.9234 16.7125 35.0109 16.9859 34.8359 17.1719C33.9742 17.5819 33.293 18.2942 32.9219 19.1734C32.4625 20.5406 32.55 20.7266 32.3203 20.9125C32.0906 21.0984 31.7187 21.1422 31.5547 20.8687Z" fill="#31312D" />
  <path d="M29.9141 26.6984C29.8484 26.4141 31.5547 24.9703 34.5625 24.0078C37.5703 23.0453 39.8453 23.2312 39.8891 23.6906C39.8964 24.0884 39.8523 24.4854 39.7578 24.8719C37.9951 24.5475 36.1768 24.7217 34.5078 25.375C32.0031 26.4687 30.7344 27.475 30.5047 27.475C30.275 27.475 29.9578 26.9281 29.9141 26.6984Z" fill="#31312D" />
  <path d="M36.2469 27.3437C40.8953 26.1406 46.3641 29.5312 47.1844 33.5891C48.0047 37.6469 46.3094 43.2906 39.6594 44.1656C33.0094 45.0406 29.4985 42.4266 28.7219 38.0953C27.9454 33.7641 29.5313 29.0172 36.2469 27.3437Z" fill="#31312D" />
  <path d="M36.5422 28.7547C40.3813 27.7594 44.8875 30.5594 45.5328 33.9062C46.1781 37.2531 44.8438 41.9234 39.375 42.6562C33.9063 43.3891 30.986 41.2234 30.3844 37.6469C29.7828 34.0703 31.0078 30.1766 36.5422 28.7547Z" fill="white" />
  <path d="M37.0016 31.0297C39.5719 30.3625 42.6016 32.2328 43.0281 34.4859C43.1935 35.1475 43.2137 35.837 43.0874 36.5071C42.9611 37.1772 42.6913 37.8121 42.2964 38.368C41.9015 38.924 41.391 39.3879 40.7998 39.7278C40.2087 40.0678 39.551 40.2758 38.8719 40.3375C35.1859 40.8188 33.2391 39.375 32.8344 36.9797C32.4297 34.5844 33.2938 31.9813 37.0016 31.0297Z" fill="#31312D" />
  <path d="M38.1609 32.5719C38.675 32.3203 40.7969 33.8078 40.4797 34.3109C40.1625 34.8141 38.0188 34.9453 37.7891 34.7156C37.5594 34.4859 37.5156 32.9 38.1609 32.5719Z" fill="white" />
</svg>
