<svg width="70" height="70" viewBox="0 0 70 70" fill="none" xmlns="http://www.w3.org/2000/svg">
  <path d="M17.0734 20.7156L11.1453 15.6953C10.6129 16.09 9.95601 16.2796 9.29513 16.2294C8.63424 16.1792 8.01359 15.8925 7.54688 15.4219C5.81876 13.7375 6.45313 10.5 9.05626 9.36251C11.6594 8.22501 14.6563 8.49844 15.6188 10.2813C16.5813 12.0641 14.7109 13.5625 14.7109 13.5625L20.3109 17.5C23.2271 14.691 26.7261 12.5588 30.5594 11.2547C37.0344 9.06719 46.7359 12.5344 48.0594 13.125C49.3828 13.7156 50.5641 14.4047 50.5641 14.4047L53.6703 11.6266C53.6703 11.6266 52.0297 8.75001 54.6219 7.21876C55.2428 6.82489 55.9353 6.5574 56.6598 6.43164C57.3842 6.30587 58.1264 6.32429 58.8437 6.48584C59.561 6.64739 60.2394 6.9489 60.84 7.37309C61.4406 7.79727 61.9516 8.3358 62.3438 8.95782C64.2578 11.7797 63.3828 14.6016 60.9766 15.1484C60.2503 15.3034 59.5004 15.3106 58.7713 15.1697C58.0422 15.0288 57.349 14.7426 56.7328 14.3281L53.9547 17.2484C53.9547 17.2484 58.0125 20.6172 58.6469 27.825C59.2171 34.0571 58.3606 40.3373 56.1422 46.1891C54.4469 50.1484 52.5 53.9328 52.5 53.9328C52.5 53.9328 56.3719 53.1563 58.3734 55.3984C60.375 57.6406 60.8344 59.3141 61.425 59.5C62.0156 59.6859 62.6172 59.7188 62.0703 60.7688C61.7258 61.26 61.256 61.65 60.7097 61.8981C60.1635 62.1463 59.5607 62.2435 58.9641 62.1797C57.9782 61.8709 56.9375 61.7777 55.9125 61.9063C55.1797 62.1797 52.6313 63.5031 50.0391 62.3656C47.4469 61.2281 46.5281 61.0422 45.1172 61.2719C43.7063 61.5016 40.7422 63.1859 37.7781 63.0438C36.1638 62.9448 34.5776 62.575 33.0859 61.95C32.7141 61.95 30.3516 63.9078 27.6172 63.7328C24.8828 63.5578 24.6969 62.4969 22.5969 62.6391C20.4969 62.7813 17.675 63.5031 16.3625 63.5906C15.05 63.6781 12.9828 63.7766 12.3484 63.4156C11.7141 63.0547 11.7141 60.2219 13.2125 58.3516C14.5454 56.5526 16.4907 55.3037 18.6813 54.8406C20.1422 54.7631 21.6072 54.8254 23.0563 55.0266C23.2422 55.0266 18.5938 48.4641 15.9469 40.6219C13.3 32.7797 14.2188 25.0906 17.0734 20.7156Z" fill="#31312D" />
  <path d="M54.1734 55.7813C51.6141 55.4203 49.4703 58.1 49.1969 58.3297C48.9234 58.5594 48.1031 57.7391 47.9281 57.4656C47.7531 57.1922 47.9281 57.2359 48.3766 56.4594C49.0685 55.645 49.85 54.9112 50.7063 54.2719C50.8281 53.8062 50.9816 53.3494 51.1656 52.9047C51.4391 52.2594 53.2547 48.4313 54.4469 45.2484C56.0657 40.2533 56.8852 35.0337 56.875 29.7828C56.7766 24.4016 54.9609 19.0313 49.3063 16.2422C43.6516 13.4531 38.8281 11.9656 31.3906 13.4641C23.9531 14.9625 22.0938 18.3859 22.0938 18.3859L25.4297 20.9453C25.9109 21.3063 22.3453 25.3203 21.7984 25.1453C21.5797 25.0797 18.5172 22.2578 18.5172 22.2578C17.6968 23.483 17.1382 24.8645 16.8766 26.3156C16.2422 29.1484 16.2859 33.9719 18.025 40.1297C19.7641 46.2875 24.5 54.4797 24.5 54.4797C25.4312 54.1513 26.3807 53.8773 27.3438 53.6594C27.6279 53.6001 27.9215 53.6026 28.2045 53.6667C28.4876 53.7309 28.7536 53.8552 28.9844 54.0313C28.9844 54.0313 29.2578 54.7531 28.9297 54.8953C27.5549 55.5313 26.1411 56.0793 24.6969 56.5359C22.5094 57.2141 21.0984 56.3938 18.2219 56.7656C15.3453 57.1375 14.0219 61.25 14.0219 61.7313C14.0219 62.2125 15.6188 62.0484 17.1609 61.9062C18.7031 61.7641 20.7594 60.5391 21.9953 60.4953C23.2313 60.4516 24.3688 61.3156 27.2781 61.4141C28.9767 61.5217 30.653 60.9824 31.9703 59.9047C32.9328 59.4016 34.2125 57.0828 35.8969 56.6234C37.5813 56.1641 38.3578 56.5359 40.0859 57.0828C41.3573 57.3978 42.6864 57.3978 43.9578 57.0828C44.0894 57.062 44.224 57.0719 44.3511 57.1118C44.4783 57.1516 44.5945 57.2203 44.6906 57.3125C44.9641 57.5313 43.9141 59.0406 42.0875 59.5C40.2609 59.9594 36.1266 58.5047 35.525 58.6359C34.9234 58.7672 34.6609 60.0031 34.8469 60.1891C36.4913 60.7397 38.2218 60.988 39.9547 60.9219C42.2297 60.8234 44.1438 59.3688 47.1953 59.2813C50.2469 59.1938 51.8875 60.8672 52.6641 61.0969C53.4406 61.3266 54.5781 60.5938 55.4422 60.3203C56.3063 60.0469 58.275 60.3203 58.5047 60.1016C58.7344 59.8828 56.7219 56.1203 54.1734 55.7813Z" fill="#9697D2" />
  <path d="M51.8875 14.7875C52.0297 14.7 55.0813 11.8234 55.0813 11.8234C55.0813 11.8234 53.3531 9.63594 55.5406 8.18125C57.7281 6.72656 60.5938 8.09375 61.7313 10.1391C62.8688 12.1844 61.4141 14.1094 60.0906 13.9672C58.7672 13.825 57.2688 12.7859 56.7219 13.0156C56.175 13.2453 53.5281 16.1984 53.2985 16.1547C52.7869 15.7435 52.3146 15.2858 51.8875 14.7875Z" fill="#CDD0DA" />
  <path d="M21.7219 25.5938C22.4664 25.9293 23.2799 26.0835 24.0956 26.0436C24.9113 26.0036 25.7059 25.7708 26.4141 25.3641C27.6499 24.4698 28.5753 23.2117 29.0609 21.7656C29.2083 21.7107 29.3701 21.7079 29.5193 21.7577C29.6685 21.8074 29.7963 21.9067 29.8812 22.0391C30.1109 22.3563 29.4656 24.675 27.6937 25.9547C27.1079 26.4573 26.425 26.8341 25.6875 27.0618C24.9499 27.2894 24.1734 27.3631 23.4062 27.2781C21.9516 27.1797 21.6781 27.1797 21.4484 26.9063C21.2187 26.6328 21.5359 25.5938 21.7219 25.5938Z" fill="#31312D" />
  <path d="M19.9938 31.5109C20.2016 31.2047 20.9016 31.5109 20.8578 31.9266C20.5798 33.2202 20.6901 34.5672 21.175 35.7984C21.9516 37.8437 22.3563 37.8984 22.1813 38.2156C22.0063 38.5328 21.4047 38.85 21.0875 38.6641C20.3585 37.5598 19.8806 36.3091 19.6875 35C19.3818 33.8367 19.49 32.6032 19.9938 31.5109Z" fill="#31312D" />
  <path d="M31.6531 32.1016C31.8766 31.0947 32.46 30.204 33.2938 29.5969C34.7594 28.5031 35.6234 28.4156 35.8531 28.5031C36.0828 28.5906 36.3453 29.05 36.1703 29.2797C35.9953 29.5094 34.5734 29.5313 33.6109 30.625C32.6484 31.7188 32.6594 32.6266 32.4297 32.6703C32.2 32.7141 31.8828 32.2438 31.6531 32.1016Z" fill="#31312D" />
  <path d="M44.4609 25.4516C45.6699 25.4437 46.8389 25.884 47.7422 26.6875C49.3391 28.0547 49.5687 29.2359 49.3828 29.4656C49.1556 29.6542 48.8909 29.7921 48.6062 29.8703C48.4408 28.8702 47.9061 27.9685 47.1078 27.3438C46.2663 26.8967 45.3575 26.59 44.4172 26.4359C44.2312 26.4141 44.1875 25.6375 44.4609 25.4516Z" fill="#31312D" />
  <path d="M38.1719 34.5625C39.4187 34.0484 41.0484 35.1094 41.2672 37.0781C41.4859 39.0469 41.0484 40.3594 39.725 40.3594C38.4015 40.3594 37.0781 38.6203 36.8484 37.5266C36.654 36.9567 36.6824 36.3344 36.9279 35.7845C37.1734 35.2347 37.6178 34.7982 38.1719 34.5625Z" fill="#31312D" />
  <path d="M38.5766 35.875C39.2438 35.6016 40.1188 36.1703 40.2391 37.2203C40.3594 38.2703 40.1188 38.9594 39.4078 38.9813C38.6969 39.0031 37.9969 38.0516 37.8656 37.4719C37.7622 37.1651 37.7779 36.8306 37.9096 36.5348C38.0413 36.239 38.2794 36.0035 38.5766 35.875Z" fill="#D6EEFA" />
  <path d="M45.0953 32.6484C46.3969 31.7844 47.6547 32.7906 47.6109 35.6125C47.5912 36.5903 47.2993 37.5433 46.768 38.3644C46.2367 39.1855 45.487 39.8423 44.6031 40.2609C44.3729 40.3548 44.1222 40.3866 43.8758 40.3533C43.6295 40.3199 43.3962 40.2226 43.1992 40.071C43.0022 39.9194 42.8484 39.7188 42.7532 39.4892C42.6579 39.2596 42.6245 39.009 42.6563 38.7625C42.6563 37.2531 43.8703 33.4688 45.0953 32.6484Z" fill="#31312D" />
  <path d="M45.7844 33.6547C46.2656 33.5125 47.0641 35.2516 46.1891 37.0781C45.3141 38.9047 44.4172 39.0797 44.1875 38.9375C43.9578 38.7953 44.0563 37.5266 44.5047 36.0719C44.9531 34.6172 45.325 33.7969 45.7844 33.6547Z" fill="#D6EEFA" />
  <path d="M34.6172 43.5859C35.4375 43.4219 35.9844 44.1875 36.8922 45.1391C37.8 46.0906 37.8109 46.7797 39.3094 46.9219C40.8078 47.0641 41.4094 46.7359 41.4969 47.0531C41.5844 47.3703 41.6828 47.5562 41.3656 47.7859C41.0484 48.0156 39.0797 49.1531 35.7109 47.8734C32.3422 46.5937 31.7953 44.1875 34.6172 43.5859Z" fill="#31312D" />
  <path d="M52.9812 38.1719C53.2328 38.0188 54.7203 39.0797 54.5781 39.4406C54.4359 39.8016 54.4906 39.9 54.2172 39.9C53.5222 39.743 52.8786 39.4118 52.3469 38.9375C52.2047 38.6203 52.6641 38.3469 52.9812 38.1719Z" fill="#31312D" />
  <path d="M50.564 40.7641C50.7172 40.6547 53.3531 41.6281 53.3531 42.0438C53.3531 42.4594 53.1234 42.9078 52.8937 42.9078C51.8808 42.6589 50.9006 42.2918 49.9734 41.8141C50.087 41.4233 50.2891 41.064 50.564 40.7641Z" fill="#31312D" />
  <path d="M49.5688 43.5859C49.9734 43.5203 52.85 45.325 52.85 45.5984C52.85 45.8719 52.7516 46.1016 52.5219 46.1016C52.2922 46.1016 48.9672 44.7344 48.9672 44.3625C48.9824 44.189 49.0472 44.0235 49.1539 43.8858C49.2605 43.7481 49.4046 43.644 49.5688 43.5859Z" fill="#31312D" />
  <path d="M47.9719 46.1453C48.2672 45.85 51.6578 48.0594 51.6578 48.3328C51.6578 48.6063 51.5266 48.8359 51.2969 48.8359C50.0025 48.3514 48.7663 47.7241 47.6109 46.9656C47.5125 46.6922 47.8297 46.2766 47.9719 46.1453Z" fill="#31312D" />
  <path d="M46.5609 48.4203C46.8234 48.3328 50.6187 50.75 50.564 51.1109C50.55 51.2185 50.5147 51.3223 50.4602 51.4162C50.4058 51.51 50.3333 51.5922 50.2469 51.6578C48.7414 51.0605 47.2795 50.3588 45.8719 49.5578C45.9737 49.1146 46.2153 48.7158 46.5609 48.4203Z" fill="#31312D" />
  <path d="M45.0516 51.4062C45.0516 51.4062 49.2953 53.6813 49.1969 53.9109C49.0984 54.1406 49.1969 54.3266 48.8359 54.3266C48.475 54.3266 44.7344 53.0906 44.6031 52.7297C44.4719 52.3687 44.7781 51.4062 45.0516 51.4062Z" fill="#31312D" />
  <path d="M44.0015 53.9328C44.3187 53.8344 46.375 55.1688 46.2437 55.4859C46.1125 55.8031 46.1453 55.9453 45.9156 55.8469C45.0193 55.5641 44.1514 55.1979 43.3234 54.7531C43.4785 54.428 43.7114 54.1463 44.0015 53.9328Z" fill="#31312D" />
  <path d="M23.7015 21.4812C20.8687 19.4578 13.1578 13.6062 13.2015 13.3766C13.2453 13.1469 14.7437 12.3703 14.1969 11.1891C13.65 10.0078 11.8781 9.84375 10.5984 10.1391C8.00624 10.7734 7.14217 13.6062 8.41092 14.5141C9.67967 15.4219 11.014 14.3281 11.4187 14.3828C11.8234 14.4375 19.9281 21.3828 21.9844 23.2312L23.7015 21.4812Z" fill="#CDD0DA" />
</svg>
