<svg width="70" height="70" viewBox="0 0 70 70" fill="none" xmlns="http://www.w3.org/2000/svg">
  <path d="M33.4578 38.5547C33.4578 38.5547 26.5343 38.9156 22.8375 35.2734C19.1406 31.6312 19.064 28.9406 19.064 28.9406C19.064 28.9406 16.1437 29.0281 14.9625 28.0219C13.7812 27.0156 13.5406 24.4672 15.3234 22.7828C17.1062 21.0984 17.9703 21.2406 17.9703 21.2406C18.1507 19.8595 18.4695 18.5001 18.9218 17.1828C19.2139 16.3724 19.611 15.6039 20.1031 14.8969L15.1375 12.1625C14.7614 12.5657 14.2628 12.8336 13.719 12.9246C13.1751 13.0156 12.6165 12.9245 12.1297 12.6656C11.6673 12.4437 11.2656 12.113 10.9591 11.7018C10.6525 11.2907 10.4503 10.8113 10.3696 10.3048C10.289 9.79831 10.3323 9.27982 10.496 8.79376C10.6597 8.30771 10.9388 7.8686 11.3093 7.51406C11.9965 6.94456 12.8443 6.6037 13.7344 6.53899C14.6245 6.47429 15.5127 6.68898 16.275 7.15312C17.3687 7.92968 16.8218 9.48281 16.8218 9.48281L22.4328 12.0312C25.1894 9.38085 28.8172 7.82553 32.6375 7.65625C36.9526 7.41467 41.2313 8.56486 44.8437 10.9375C45.6992 11.7435 46.4622 12.6423 47.1187 13.6172L53.1781 9.57031C53.0998 9.20744 53.0945 8.83264 53.1624 8.46769C53.2303 8.10274 53.3701 7.75494 53.5737 7.44451C53.7772 7.13409 54.0405 6.86724 54.3481 6.65949C54.6557 6.45174 55.0016 6.30723 55.3656 6.23437C55.8307 6.04349 56.3334 5.96202 56.835 5.99627C57.3366 6.03052 57.8236 6.17956 58.2584 6.43189C58.6932 6.68423 59.0642 7.0331 59.3428 7.45159C59.6214 7.87008 59.8001 8.34699 59.8652 8.8455C59.9302 9.34402 59.8798 9.85081 59.7178 10.3268C59.5559 10.8027 59.2868 11.2351 58.9312 11.5905C58.5757 11.9459 58.1432 12.2149 57.6672 12.3767C57.1912 12.5384 56.6844 12.5886 56.1859 12.5234C55.8004 12.4312 55.4315 12.2799 55.0922 12.075L49.2625 16.8547C49.6071 17.5095 49.882 18.1987 50.0828 18.9109C50.1703 19.5453 50.214 20.2344 50.214 20.2344C50.214 20.2344 54.2718 20.0047 54.1297 23.8328C53.9875 27.6609 49.6234 28.2078 49.6234 28.2078C49.3403 29.6333 48.7594 30.9829 47.9188 32.1684C47.0782 33.354 45.9968 34.3487 44.7453 35.0875C42.1882 36.7108 39.3125 37.7663 36.3125 38.1828L36.6843 42.1531C37.8733 42.4883 38.8852 43.2728 39.5062 44.3406C40.414 46.025 41.5515 47.9828 42.0109 47.9828C42.4703 47.9828 44.1984 46.4844 44.8328 45.9812C45.2184 45.7144 45.5458 45.372 45.7953 44.975C45.7953 44.975 43.7937 42.0109 46.5281 40.7422C49.2625 39.4734 50.8703 41.5625 50.0937 43.75C49.3172 45.9375 46.4515 45.6641 46.4515 45.6641C46.4515 45.6641 42.8531 49.2187 42.2078 49.2187C41.8598 49.2221 41.5147 49.155 41.1933 49.0215C40.8719 48.8881 40.5808 48.691 40.3375 48.4422C39.5631 46.8815 38.6824 45.3758 37.7015 43.9359C37.1984 43.5203 36.8375 43.6625 36.7828 43.7937C36.7281 43.925 38.839 53.8672 38.5656 56.0109C38.3411 57.3759 37.6675 58.6269 36.6515 59.5656L36.739 60.6594C36.739 60.6594 39.3422 60.2875 39.8453 61.6547C40.3484 63.0219 38.5218 64.0719 37.2422 63.8422C35.9625 63.6125 35.7437 63.2078 35.7437 63.0219C35.7437 62.8359 35.5578 59.9266 35.5578 59.9266L34.464 59.7406C34.464 59.7406 34.9672 63.2516 34.464 63.5687C33.9609 63.8859 31.7734 64.3016 31.1281 63.6672C30.946 63.4578 30.8203 63.2053 30.7631 62.9337C30.7059 62.6621 30.719 62.3804 30.8012 62.1153C30.8833 61.8502 31.0318 61.6105 31.2326 61.4188C31.4334 61.2272 31.6798 61.09 31.9484 61.0203C33.3703 60.7031 33.6437 60.8781 33.6437 60.8781V59.5109C32.9469 59.0445 32.383 58.4053 32.0073 57.6557C31.6315 56.9061 31.4567 56.0718 31.5 55.2344C31.5 52.1828 33.3265 42.9734 33.3265 42.9734C33.3265 42.9734 32.7797 42.3828 31.5875 43.8375C30.3932 45.6901 29.5893 47.7668 29.225 49.9406C29.039 51.2641 28.9953 51.7234 28.9953 51.7234C29.4684 51.9614 29.8597 52.3353 30.1189 52.7972C30.3781 53.259 30.4934 53.7878 30.45 54.3156C30.4015 54.7157 30.2538 55.0973 30.0203 55.4257C29.7868 55.7541 29.475 56.0189 29.113 56.1961C28.7511 56.3733 28.3506 56.4571 27.948 56.4401C27.5454 56.423 27.1534 56.3056 26.8078 56.0984C25.4406 55.2344 25.6265 53.1344 26.2172 52.2703C26.6339 51.7407 27.2086 51.3576 27.8578 51.1766C27.8578 51.1766 28.8531 45.6094 30.0453 44.0234C30.6848 43.0075 31.6481 42.2369 32.7797 41.8359C33.0968 41.7375 33.4578 41.65 33.4578 41.65V38.5547Z" fill="#31312D" />
  <path d="M12.9937 7.83126C13.256 7.71549 13.5414 7.66156 13.8278 7.67363C14.1142 7.68569 14.394 7.76344 14.6456 7.90087C14.8972 8.03829 15.1138 8.23171 15.2788 8.46618C15.4437 8.70065 15.5525 8.9699 15.5969 9.25313C15.7025 9.64218 15.6915 10.0537 15.5652 10.4366C15.4389 10.8194 15.2028 11.1567 14.8863 11.4064C14.5698 11.6561 14.1869 11.8073 13.7852 11.8412C13.3834 11.875 12.9806 11.79 12.6268 11.5968C12.273 11.4035 11.9838 11.1105 11.7952 10.7542C11.6066 10.3979 11.5269 9.99403 11.566 9.59278C11.6051 9.19153 11.7613 8.81062 12.0151 8.49743C12.269 8.18424 12.6093 7.95258 12.9937 7.83126Z" fill="#CEF743" />
  <path d="M55.7812 7.19688C56.042 7.08097 56.3259 7.02663 56.611 7.03807C56.8961 7.0495 57.1748 7.12641 57.4254 7.26282C57.6761 7.39924 57.8919 7.59151 58.0563 7.82474C58.2207 8.05798 58.3292 8.32592 58.3734 8.60782C58.482 8.99703 58.4734 9.40959 58.3489 9.79397C58.2243 10.1784 57.9892 10.5175 57.6731 10.7691C57.3569 11.0207 56.9736 11.1736 56.5711 11.2086C56.1685 11.2436 55.7646 11.1593 55.4097 10.9661C55.0548 10.773 54.7647 10.4795 54.5756 10.1225C54.3865 9.76538 54.3068 9.3605 54.3464 8.95839C54.386 8.55628 54.5433 8.17476 54.7985 7.86148C55.0536 7.5482 55.3955 7.31704 55.7812 7.19688Z" fill="#CEF743" />
  <path d="M17.7406 22.9688C17.9812 22.8922 17.8718 24.5219 18.1015 25.6594C18.3312 26.7969 18.5172 27.475 18.2875 27.475C18.0578 27.475 16.4172 27.6609 16.1 26.1625C15.9272 25.5215 15.9995 24.839 16.3029 24.2485C16.6063 23.6579 17.1189 23.2016 17.7406 22.9688Z" fill="#CEF743" />
  <path d="M50.4547 21.875C50.6926 21.8155 50.9406 21.8084 51.1816 21.8541C51.4225 21.8998 51.6507 21.9973 51.8504 22.1397C52.05 22.2822 52.2164 22.4663 52.338 22.6793C52.4596 22.8923 52.5335 23.1291 52.5547 23.3734C52.8718 25.1563 50.0937 26.5672 49.9625 26.3813C49.8312 26.1953 50.3672 24.8281 50.4109 23.9641C50.3503 23.2682 50.365 22.5678 50.4547 21.875Z" fill="#CEF743" />
  <path d="M16.8766 10.7516C17.0953 10.7516 21.3828 12.6656 21.1969 13.0266C21.0109 13.3875 20.65 13.9891 20.5188 13.9016C20.3875 13.8141 16.6031 12.0312 16.5047 11.8016C16.4063 11.5719 16.8766 10.7516 16.8766 10.7516Z" fill="#FFD458" />
  <path d="M48.125 14.2187C48.3109 14.1312 52.9594 10.4344 53.2328 10.7078C53.5062 10.9812 53.9984 11.3969 53.7797 11.6156C53.5609 11.8344 48.9016 15.8156 48.7594 15.5859C48.6172 15.3562 48.125 14.2187 48.125 14.2187Z" fill="#FFD458" />
  <path d="M29.5312 9.65781C32.8125 8.47656 38.8281 8.925 43.6078 12.1187C48.3875 15.3125 47.9828 24.6969 47.8953 25.7469C47.7637 26.5302 47.5359 27.2943 47.2172 28.0219C46.6986 27.1629 46.1018 26.3538 45.4344 25.6047C45.2047 25.6047 44.614 26.0203 44.8437 26.25C45.6323 27.1663 46.3046 28.1766 46.8453 29.2578C46.7578 29.5312 45.9812 30.8 45.9812 30.8C45.3845 29.7836 44.7156 28.8113 43.9797 27.8906C43.7937 27.8906 43.2031 28.3391 43.2906 28.4812C44.0784 29.5538 44.7667 30.6961 45.3469 31.8937C45.2047 32.1234 44.2531 33.0859 44.1547 32.9C43.7126 32.018 43.212 31.1667 42.6562 30.3516C42.514 30.3516 42.0109 30.5812 42.1094 30.8C42.2078 31.0187 43.7937 33.4906 43.6078 33.7203C43.2684 34.0258 42.9024 34.3004 42.514 34.5406C42.514 34.5406 41.6062 32.3531 41.4203 32.3531C41.2344 32.3531 40.414 32.7687 40.5125 32.9C40.6109 33.0312 41.6937 34.8578 41.5078 35.0875C41.3146 35.2521 41.1014 35.3917 40.8734 35.5031L39.6156 33.9062L38.9703 34.3109C38.9703 34.3109 39.9765 35.8641 39.7906 35.9078L38.8828 36.1813C38.8828 36.1813 38.3359 34.9562 38.15 34.9016C37.964 34.8469 37.2422 34.9016 37.3844 35.0437C37.6115 35.4707 37.8089 35.9129 37.975 36.3672C35.1643 36.9454 32.2653 36.9454 29.4547 36.3672C27.1443 35.8626 25.0391 34.675 23.4124 32.9586C21.7857 31.2422 20.7127 29.0763 20.3328 26.7422C19.4296 22.5051 20.1477 18.0835 22.3453 14.35C23.9312 11.7578 26.764 10.6641 29.5312 9.65781Z" fill="#A3D995" />
  <path d="M24.7078 13.2562C24.9703 13.0703 25.3969 13.4422 25.2547 13.6719C24.3011 14.4958 23.5933 15.5668 23.2094 16.7672C22.6625 18.725 22.8922 19.1844 22.6625 19.2281C22.4328 19.2719 21.8422 19.2281 21.7985 19.1406C21.9211 18.057 22.1973 16.9964 22.6188 15.9906C23.116 14.9429 23.8277 14.0113 24.7078 13.2562Z" fill="#31312D" />
  <path d="M33.5562 11.2984C34.7058 11.0445 35.8999 11.0739 37.0356 11.384C38.1713 11.6941 39.2146 12.2756 40.0756 13.0785C40.9366 13.8814 41.5896 14.8816 41.9781 15.9929C42.3667 17.1042 42.4793 18.2933 42.3062 19.4578C41.5625 26.25 31.7734 28.8859 28.4922 24.3359C25.2109 19.7859 25.6703 13.3547 33.5562 11.2984Z" fill="#31312D" />
  <path d="M33.7859 13.2453C34.6438 13.0468 35.5372 13.0609 36.3883 13.2865C37.2395 13.5121 38.0226 13.9422 38.6696 14.5396C39.3165 15.1369 39.8076 15.8833 40.1003 16.7138C40.3929 17.5443 40.4781 18.4337 40.3484 19.3047C39.8016 24.3906 32.5172 26.3156 30.0781 22.9359C27.6391 19.5563 27.9234 14.7656 33.7859 13.2453Z" fill="white" />
  <path d="M34.1359 16.1C34.5568 16.0066 34.9941 16.017 35.41 16.1302C35.826 16.2435 36.2082 16.4562 36.5236 16.7501C36.839 17.044 37.0782 17.4102 37.2205 17.8171C37.3629 18.2241 37.4041 18.6595 37.3406 19.0859C37.0672 21.5906 33.4797 22.5422 32.2766 20.8687C31.0734 19.1953 31.2375 16.8547 34.1359 16.1Z" fill="#31312D" />
  <path d="M28.1312 28.9844C28.7536 29.8909 29.6013 30.6198 30.5909 31.0992C31.5805 31.5787 32.6778 31.7922 33.775 31.7188C35.9239 31.6996 37.9819 30.849 39.5172 29.3453C39.8891 29.3453 40.6109 30.3516 40.5234 30.8C40.4359 31.2484 38.1062 33.8078 33.6437 33.5344C29.1812 33.2609 27.0812 30.3953 27.0812 30.1656C27.0812 29.9359 27.7594 28.9844 28.1312 28.9844Z" fill="#31312D" />
  <path d="M35 40.4688C35.1859 40.4688 37.1875 55.7813 36.7281 56.6891C36.2687 57.5969 33.9062 58.2422 33.4469 56.6891C32.9875 55.1359 34.5078 40.4688 35 40.4688Z" fill="#A3D995" />
  <path d="M27.8578 52.6312C28.6234 52.4781 29.3563 53.3203 29.3563 54.1406C29.3277 54.3473 29.2526 54.5448 29.1367 54.7182C29.0207 54.8916 28.8669 55.0365 28.6868 55.1418C28.5067 55.2471 28.305 55.3102 28.097 55.3262C27.889 55.3422 27.6801 55.3108 27.4859 55.2344C26.8078 54.8187 26.5344 52.9047 27.8578 52.6312Z" fill="#CEF743" />
  <path d="M47.6328 41.5625C48.0241 41.5625 48.4018 41.7062 48.6942 41.9663C48.9865 42.2264 49.1732 42.5848 49.2188 42.9734C49.2188 43.7938 47.5781 44.6141 47.0313 44.3406C46.4844 44.0672 46.2656 41.8359 47.6328 41.5625Z" fill="#CEF743" />
</svg>
