<svg width="70" height="70" viewBox="0 0 70 70" fill="none" xmlns="http://www.w3.org/2000/svg">
  <path d="M18.1453 15.3125C21.4782 11.9103 25.6516 9.45001 30.2422 8.18125C37.4172 6.39844 43.1594 7.0875 47.0531 9.54844C50.9469 12.0094 52.1172 14.3281 52.1172 14.3281L54.6875 12.4141C54.6875 12.4141 52.1609 6.39844 57.4984 4.96563C62.8359 3.53282 63.8531 7.90782 63.6453 11.3203C63.4375 14.7328 61.075 15.4219 60.1562 15.5641C59.1569 15.5521 58.1651 15.3899 57.2141 15.0828L54.2828 19.4578C55.2866 21.5855 55.8378 23.8983 55.9016 26.25C56.0131 28.2845 55.9729 30.3246 55.7812 32.3531C55.7812 32.3531 59.7078 33.9938 59.8391 33.9938C59.9703 33.9938 63.0328 32.9 64.1266 33.8078C65.2203 34.7156 64.9031 35.5469 64.9031 35.5469C64.9031 35.5469 67.0906 35.5469 66.5875 37.4609C66.5011 37.964 66.2881 38.4367 65.9685 38.8347C65.649 39.2327 65.2334 39.5429 64.7609 39.7359C65.0537 39.89 65.2747 40.1523 65.3769 40.4669C65.479 40.7816 65.4542 41.1237 65.3078 41.4203C64.9603 42.0223 64.4072 42.4788 63.7502 42.7058C63.0932 42.9328 62.3763 42.9153 61.7312 42.6563C60.5383 41.7973 59.6465 40.584 59.1828 39.1891C59.0222 38.6393 58.916 38.0752 58.8656 37.5047L55.3984 36.4109C55.3984 36.4109 52.5766 45.8391 51.3406 49.7109C50.1047 53.5828 49.3828 56.0984 49.3828 56.0984C49.3828 56.0984 53.6156 56.0984 54.1187 58.1875C54.6219 60.2766 54.5781 63.5688 54.1187 63.8859C53.6594 64.2031 48.65 64.6188 44.9203 64.6188C41.1906 64.6188 39.9547 63.7547 39.9984 63.1641C40.0422 62.5734 39.9984 54.9063 39.725 54.775C38.2723 54.5945 36.8027 54.5945 35.35 54.775C33.5234 54.95 32.2 55.4531 32.1562 55.8688C32.1125 56.2844 32.4297 63.8422 32.1562 64.3453C31.8828 64.8484 25.3203 65.3844 21.0328 65.4391C16.7453 65.4938 16.0234 65.4391 16.0234 64.9797C16.0234 64.5203 15.2906 59.5109 16.7125 58.7344C18.3729 58.1537 20.1002 57.7862 21.8531 57.6406C21.8531 57.6406 18.7141 49.0766 17.1609 44.7891C15.6078 40.5016 14.5688 37.2203 14.5688 37.2203L11.0141 38.2813C11.0141 38.2813 11.3313 40.0531 10.4672 40.6984C9.60313 41.3438 8.00625 41.7922 7.18594 40.6984C6.95907 40.3685 6.80807 39.9924 6.74377 39.5972C6.67947 39.2019 6.70348 38.7974 6.81407 38.4125C6.36137 38.1397 5.98856 37.7524 5.73318 37.2896C5.4778 36.8269 5.34887 36.305 5.35938 35.7766C5.58907 34.1797 6.22344 33.5891 6.59532 33.4031C6.90541 33.3211 7.22703 33.2915 7.54688 33.3156C7.54688 33.3156 8.49844 31.5328 9.84375 31.8938C10.205 31.9569 10.5371 32.1327 10.7925 32.3959C11.0478 32.6591 11.2134 32.9964 11.2656 33.3594L13.7266 32.4406C13.1266 29.9288 13.078 27.3168 13.5844 24.7844C13.9262 22.691 14.7873 20.7168 16.0891 19.0422L11.2656 13.9891C10.6175 14.4489 9.88413 14.7748 9.10847 14.9476C8.33281 15.1203 7.53046 15.1366 6.74844 14.9953C4.375 14.3938 2.1875 12.0313 4.07969 8.43282C5.97188 4.83438 12.0313 4.50625 13.5188 6.5625C15.0063 8.61875 13.5188 11.2984 13.5188 11.2984L18.1453 15.3125Z" fill="#31312D" />
  <path d="M9.09999 34.3109L8.49842 33.3594C8.49842 33.3594 8.72811 32.2656 9.64686 32.6703C10.5656 33.075 10.7406 34.4094 10.8719 34.3547C11.0031 34.3 13.6062 33.3156 13.7484 33.5891C13.8906 33.8625 14.339 36.225 14.339 36.225C14.339 36.225 9.96405 37.3187 9.96405 37.5922C9.96405 37.8656 10.325 39.375 9.73436 39.8781C9.14374 40.3812 8.27967 40.425 8.09374 40.0531C7.9078 39.6812 7.77655 38.7844 8.09374 38.7297C8.41092 38.675 8.72811 38.5109 8.72811 38.3688C8.72811 38.2266 8.64061 37.5922 8.64061 37.5922C8.64061 37.5922 7.54686 37.9641 6.99999 37.3625C6.45311 36.7609 5.99374 35.0875 6.56249 34.6828C6.80153 34.5005 7.08954 34.3938 7.38963 34.3763C7.68973 34.3587 7.98822 34.4312 8.24686 34.5844C8.45467 34.8578 9.09999 34.3109 9.09999 34.3109Z" fill="#DDC07C" />
  <path d="M13.2891 34.3547C13.3766 34.4969 13.6063 35.1313 13.3766 35.2734C13.0982 35.3662 12.8059 35.4106 12.5125 35.4047C12.5125 35.4047 12.1078 34.8141 12.2828 34.6828C12.6049 34.536 12.9424 34.4259 13.2891 34.3547Z" fill="#31312D" />
  <path d="M9.27498 6.5625C11.1672 6.2125 12.7859 7.01094 13.0594 8.75C13.3328 10.4891 11.0578 13.125 9.50467 13.7594C7.95155 14.3938 5.86249 14.2625 4.99842 12.9391C4.13436 11.6156 3.84998 7.55781 9.27498 6.5625Z" fill="#FFD458" />
  <path d="M13.125 12.2609C14.6837 13.5328 16.146 14.9184 17.5 16.4063C17.2987 16.9149 17.0222 17.3906 16.6797 17.8172C16.6797 17.8172 12.0313 13.8031 12.1953 13.5734C12.3594 13.3438 13.125 12.2609 13.125 12.2609Z" fill="#DDC07C" />
  <path d="M57.8594 6.28906C59.4016 5.78594 62.0484 6.05937 62.6391 9.65781C63.2297 13.2562 60.9984 14.6234 58.7672 14.175C57.8018 14.0007 56.9393 13.4645 56.3559 12.6758C55.7725 11.8871 55.5122 10.9054 55.6281 9.93125C55.7156 7.92969 56.5797 6.69375 57.8594 6.28906Z" fill="#FFD458" />
  <path d="M55.2563 13.3C55.3984 13.4859 56.5797 14.3938 56.4484 14.5797C56.3172 14.7656 53.9438 17.8609 53.9438 17.8609C53.5301 17.0783 53.1648 16.2711 52.85 15.4438C52.8938 15.3125 55.2563 13.3 55.2563 13.3Z" fill="#DDC07C" />
  <path d="M27.6391 10.6203C30.3078 9.39531 37.1219 8.52031 41.8578 9.25312C46.5937 9.98593 51.4062 15.6734 52.5 19.6875C53.1998 22.4095 53.6897 25.1812 53.9656 27.9781C53.9656 27.9781 49.9953 25.6156 49.8094 25.7906C49.6234 25.9656 49.5906 26.6109 49.7219 26.7094C49.8531 26.8078 53.8672 28.525 53.9656 28.8969C54.0641 29.2687 53.9656 31.7187 53.9656 31.7187C52.6772 31.0654 51.3515 30.4884 49.9953 29.9906C49.9078 30.1219 49.4922 30.6687 49.9953 30.8109C51.3183 31.428 52.5847 32.16 53.7797 32.9984C53.7797 33.1734 53.4187 35.9516 53.4187 35.9516C53.4187 35.9516 50.4109 34.2672 50.2687 34.3109C50.1266 34.3547 49.9516 34.9562 50.1375 35C50.3234 35.0437 53.2766 36.8266 53.2328 37.1C53.1891 37.3734 49.2187 50.0391 49.0656 50.0828C48.2564 49.7918 47.464 49.4559 46.6922 49.0766C46.6922 49.0766 46.3312 49.7219 46.5062 49.8094C46.6812 49.8969 48.8359 50.7609 48.6937 50.9906C48.5516 51.2203 48.2781 52.0844 48.2781 52.0844C47.4694 51.608 46.6159 51.2123 45.7297 50.9031C45.5875 51.0344 45.3578 51.3625 45.5875 51.5375C46.4542 51.8888 47.3013 52.2868 48.125 52.7297C48.125 52.9047 48.125 53.6375 47.9937 53.6375C47.0991 53.2024 46.1786 52.8225 45.2375 52.5C45.0078 52.5875 44.7344 53.0469 45.0078 53.2219C45.2812 53.3969 47.6984 54.4141 47.6547 54.6875C47.5447 55.0164 47.4056 55.3349 47.2391 55.6391C46.4465 55.122 45.6248 54.6509 44.7781 54.2281C44.6469 54.2281 44.4609 54.9062 44.5922 55.0047C45.3614 55.4098 46.0934 55.882 46.7797 56.4156C46.7797 56.5469 43.8703 56.7328 43.8266 57.0937C43.7446 57.4242 43.7446 57.7696 43.8266 58.1C43.9141 58.2859 47.1078 58.1 49.1094 58.3734C51.1109 58.6469 51.9859 58.6031 52.0734 59.1062C52.1609 59.6094 52.3906 62.7047 52.0734 62.7922C51.7562 62.8797 45.8281 62.7922 44.3297 62.7047C42.8312 62.6172 42 62.3437 42 62.0703C42 61.7969 41.9125 53.5937 41.6828 53.3203C41.4531 53.0469 38.1281 52.6312 35.4375 52.7734C33.7625 52.8683 32.1145 53.2378 30.5594 53.8672C30.1274 53.4396 29.6548 53.055 29.1484 52.7187C28.9625 52.7187 28.5141 53.0469 28.6453 53.2656C28.7766 53.4844 30.0125 54.5016 30.0125 54.6328C29.9949 54.8168 29.9657 54.9994 29.925 55.1797C28.8925 54.4042 27.7946 53.7199 26.6437 53.1344C26.4578 53.2656 26.2391 53.8125 26.4578 53.9547C27.6544 54.727 28.7981 55.5784 29.8812 56.5031C29.8812 56.7328 29.9687 57.8266 29.9687 57.8266C29.9687 57.8266 27.1031 55.9125 26.9172 56.1859C26.7312 56.4594 26.6875 57.05 26.8297 57.1484C26.9719 57.2469 29.8812 58.5156 29.925 58.8328C30.0394 60.1976 30.0394 61.5696 29.925 62.9344C29.75 63.1641 18.3094 64.0281 18.1672 63.5687C18.025 63.1094 18.0359 59.7406 18.3531 59.5109C18.6703 59.2812 25.4187 58.4172 25.5062 58.1875C25.5937 57.9578 25.5937 57.3672 25.375 57.3234C25.1562 57.2797 23.8656 57.3234 23.8219 57.2359C23.7781 57.1484 17.7625 41.7812 16.4391 36.225C15.1156 30.6687 14.6125 23.2859 18.5937 18.0469C22.575 12.8078 24.3578 12.1187 27.6391 10.6203Z" fill="#A3D995" />
  <path d="M36.4438 12.7094C36.8047 12.7094 36.8047 13.8031 36.6625 13.8031C34.0296 13.6663 31.4235 14.3878 29.2359 15.8594C25.55 18.4078 25.1344 19.3266 24.8609 19.2281C24.5875 19.1297 24.0953 18.9547 24.1828 18.725C25.6167 16.8441 27.4648 15.319 29.5836 14.2681C31.7024 13.2173 34.0349 12.6689 36.4 12.6656L36.4438 12.7094Z" fill="#31312D" />
  <path d="M48.0156 16.3078C48.9043 16.5453 49.7199 17.0001 50.3891 17.6312C50.3891 17.8609 50.3891 18.2766 50.1594 18.1344C49.4059 17.8206 48.675 17.4551 47.9719 17.0406C47.8734 16.8547 47.7859 16.4937 48.0156 16.3078Z" fill="#31312D" />
  <path d="M48.7484 19.3703C48.7484 19.3703 51.8 20.5953 52.0297 21.2297C52.2594 21.8641 52.3906 22.0062 52.1172 21.9625C50.9095 21.4971 49.7486 20.9185 48.65 20.2344C48.6063 20.0047 48.6063 19.4578 48.7484 19.3703Z" fill="#31312D" />
  <path d="M49.2953 22.7828C50.473 23.3021 51.6006 23.9281 52.6641 24.6531C52.7516 24.9703 53.0688 25.4297 52.6641 25.2437C51.46 24.7556 50.2874 24.1931 49.1531 23.5594C49.1702 23.2959 49.2179 23.0353 49.2953 22.7828Z" fill="#31312D" />
  <path d="M55.9891 33.4469C56.175 33.5344 59.9047 35.1312 60.0469 35.175C60.1891 35.2187 62.2344 34.2234 63.3281 34.5406C64.4219 34.8578 64.1484 35.4484 64.05 35.7219C63.9516 35.9953 63.6453 36.5422 63.875 36.7281C64.1047 36.9141 64.1047 37.0453 64.2359 37.0453C64.3672 37.0453 64.8266 36.3672 65.1984 36.5969C65.4233 36.8125 65.561 37.1034 65.5852 37.414C65.6094 37.7247 65.5184 38.0334 65.3297 38.2812C64.8424 38.8276 64.256 39.2766 63.6016 39.6047C63.4156 39.6047 63.3281 40.1516 63.5141 40.2828C63.7 40.4141 64.6953 40.7422 64.4656 41.1469C64.3442 41.3751 64.173 41.5732 63.9649 41.7265C63.7567 41.8798 63.5168 41.9845 63.2628 42.0328C63.0088 42.0811 62.7472 42.0717 62.4973 42.0055C62.2473 41.9392 62.0155 41.8178 61.8187 41.65C60.5062 40.5562 60.0906 37.6359 60.0469 37.4172C59.9399 37.046 59.7533 36.7026 59.5 36.4109C58.2037 36.0646 56.926 35.6521 55.6719 35.175C55.6719 35 55.9891 33.4469 55.9891 33.4469Z" fill="#DDC07C" />
  <path d="M35.6234 42.7438C35.7984 42.7438 39.6266 43.2031 42.4047 41.8359C45.1828 40.4688 46.8781 38.2813 47.2391 38.3688C47.6 38.4563 48.1031 39.0031 48.0156 39.1891C46.8564 41.2099 45.0823 42.8078 42.9516 43.75C39.4953 45.2922 36.0719 45.4344 35.7984 45.1609C35.525 44.8875 35.1641 42.8313 35.6234 42.7438Z" fill="#31312D" />
  <path d="M33.5672 19.8625C37.625 18.9656 43.4984 20.0922 45.7844 24.9266C48.0703 29.7609 47.4687 36.225 42.1859 39.2328C36.9031 42.2406 29.8265 42.1531 26.5453 39.0031C23.264 35.8531 20.9015 22.6953 33.5672 19.8625Z" fill="#31312D" />
  <path d="M33.8297 21.3172C37.3297 20.5406 42.4047 21.5141 44.3734 25.6922C46.3422 29.8703 45.8281 35.4484 41.2672 38.0406C36.7062 40.6328 30.625 40.5563 27.7703 37.8438C24.9156 35.1313 22.8922 23.7563 33.8297 21.3172Z" fill="white" />
  <path d="M34.4094 27.3437C35.1406 27.1965 35.9001 27.3029 36.5628 27.6451C37.2255 27.9874 37.7518 28.5453 38.0549 29.2268C38.3581 29.9083 38.42 30.6727 38.2305 31.3941C38.041 32.1155 37.6114 32.7508 37.0125 33.1953C35.4156 34.1031 33.2828 34.0812 32.2875 33.1297C31.8928 32.6484 31.6306 32.0724 31.5267 31.4587C31.4229 30.845 31.481 30.2148 31.6953 29.6305C31.9096 29.0461 32.2727 28.5278 32.7487 28.1267C33.2247 27.7257 33.7971 27.4558 34.4094 27.3437Z" fill="#31312D" />
  <path d="M35.2516 28.4375C35.5598 28.3549 35.8847 28.358 36.1912 28.4467C36.4977 28.5354 36.7742 28.7062 36.9906 28.9406C37.4391 29.4875 35.8969 30.7563 35.7109 30.6688C35.525 30.5813 34.4312 28.8859 35.2516 28.4375Z" fill="white" />
</svg>
